<svg width="21" height="21" viewBox="0 0 21 21" fill="none" xmlns="http://www.w3.org/2000/svg">
<mask id="mask0_35_4096" style="mask-type:luminance" maskUnits="userSpaceOnUse" x="0" y="0" width="21" height="21">
<path d="M15.3238 0.131836H5.73877C2.97735 0.131836 0.73877 2.37041 0.73877 5.13184V15.8688C0.73877 18.6303 2.97735 20.8688 5.73877 20.8688H15.3238C18.0852 20.8688 20.3238 18.6303 20.3238 15.8688V5.13184C20.3238 2.37041 18.0852 0.131836 15.3238 0.131836Z" fill="white"/>
</mask>
<g mask="url(#mask0_35_4096)">
<path d="M-0.230469 -0.0302734H20.7825V20.9827H-0.230469V-0.0302734Z" fill="url(#paint0_linear_35_4096)"/>
<path d="M6.60252 15.2676L5.89352 16.4956C5.76927 16.7108 5.56462 16.8679 5.32457 16.9322C5.08452 16.9965 4.82875 16.9629 4.61353 16.8386C4.3983 16.7144 4.24125 16.5097 4.17693 16.2697C4.1126 16.0296 4.14627 15.7738 4.27052 15.5586L4.79253 14.6586L4.84253 14.5716C4.9268 14.4554 5.0418 14.3648 5.17462 14.3103C5.30745 14.2557 5.45285 14.2392 5.59453 14.2626C5.59453 14.2626 6.63453 14.3756 6.70953 14.9156C6.70977 15.0425 6.67178 15.1666 6.60052 15.2716L6.60252 15.2676ZM16.6575 12.1316H14.4465C14.4015 12.1326 14.3567 12.1242 14.315 12.107C14.2734 12.0898 14.2358 12.0641 14.2045 12.0316L11.8375 7.93162L11.6955 7.73163C11.4625 7.37563 11.0955 8.28563 11.0955 8.28563C10.9611 8.69883 10.9129 9.13521 10.9538 9.56779C10.9947 10.0004 11.124 10.42 11.3335 10.8006L14.6205 16.4936C14.6821 16.6002 14.764 16.6936 14.8616 16.7685C14.9592 16.8434 15.0706 16.8984 15.1895 16.9302C15.3083 16.9621 15.4323 16.9702 15.5543 16.9541C15.6763 16.9381 15.794 16.8981 15.9005 16.8366C16.0071 16.7751 16.1005 16.6932 16.1754 16.5956C16.2503 16.4979 16.3053 16.3865 16.3371 16.2677C16.369 16.1488 16.3771 16.0248 16.361 15.9028C16.345 15.7808 16.3051 15.6632 16.2435 15.5566L15.4215 14.1326C15.4055 14.0986 15.3775 14.0046 15.5465 14.0046H16.6635C16.7866 14.0046 16.9084 13.9804 17.0221 13.9333C17.1358 13.8862 17.2391 13.8172 17.3261 13.7302C17.4131 13.6432 17.4821 13.5399 17.5292 13.4262C17.5763 13.3125 17.6005 13.1907 17.6005 13.0676C17.6005 12.9446 17.5763 12.8227 17.5292 12.709C17.4821 12.5954 17.4131 12.4921 17.3261 12.4051C17.2391 12.318 17.1358 12.249 17.0221 12.2019C16.9084 12.1549 16.7866 12.1306 16.6635 12.1306L16.6575 12.1316ZM12.3635 13.4016C12.3635 13.4016 12.4815 14.0016 12.0245 14.0016H3.85252C3.60402 14.0016 3.36569 13.9029 3.18997 13.7272C3.01425 13.5515 2.91553 13.3131 2.91553 13.0646C2.91553 12.8161 3.01425 12.5778 3.18997 12.4021C3.36569 12.2263 3.60402 12.1276 3.85252 12.1276H5.95253C6.29153 12.1076 6.37253 11.9126 6.37253 11.9126L9.11552 7.16263C9.13087 7.13295 9.13889 7.10002 9.13889 7.06662C9.13889 7.03321 9.13087 7.0003 9.11552 6.97063L8.20953 5.40163C8.08528 5.1864 8.05161 4.93063 8.11594 4.69058C8.18026 4.45053 8.3373 4.24588 8.55252 4.12163C8.76774 3.99737 9.02352 3.9637 9.26357 4.02803C9.50361 4.09235 9.70827 4.24941 9.83252 4.46463L10.2525 5.19263L10.6715 4.46663C10.733 4.36006 10.815 4.26665 10.9126 4.19174C11.0102 4.11683 11.1216 4.06188 11.2405 4.03003C11.3594 3.99818 11.4833 3.99004 11.6053 4.0061C11.7273 4.02216 11.845 4.0621 11.9515 4.12363C12.0581 4.18515 12.1515 4.26706 12.2264 4.36468C12.3013 4.46231 12.3563 4.57372 12.3881 4.69258C12.42 4.81144 12.4281 4.93542 12.412 5.05742C12.396 5.17942 12.356 5.29706 12.2945 5.40362L8.47853 12.0136C8.46153 12.0536 8.45652 12.1136 8.57852 12.1286H10.8595V12.1506C11.2167 12.1511 11.5626 12.2764 11.8372 12.5048C12.1118 12.7332 12.298 13.0505 12.3635 13.4016Z" fill="white"/>
</g>
<defs>
<linearGradient id="paint0_linear_35_4096" x1="10.276" y1="20.9827" x2="10.276" y2="-0.0302734" gradientUnits="userSpaceOnUse">
<stop stop-color="#1D76F2"/>
<stop offset="1" stop-color="#1AC2FB"/>
</linearGradient>
</defs>
</svg>
