<svg width="29" height="29" viewBox="0 0 29 29" fill="none" xmlns="http://www.w3.org/2000/svg">
<path d="M28.5541 14.8431C28.5537 12.1521 27.7823 9.51753 26.3311 7.25131C24.88 4.9851 22.8098 3.18215 20.3659 2.05588C17.9219 0.929607 15.2063 0.527184 12.5407 0.89627C9.87514 1.26536 7.37111 2.39049 5.32509 4.13846C3.27906 5.88643 1.77672 8.18405 0.995924 10.7593C0.215124 13.3346 0.188564 16.0796 0.919379 18.6695C1.65019 21.2594 3.10778 23.5857 5.11959 25.3729C7.1314 27.1601 9.61319 28.3335 12.2711 28.7541V18.9151H8.69613V14.8441H12.2721V11.7441C12.2721 8.21512 14.3721 6.26512 17.5911 6.26512C18.6471 6.27983 19.7006 6.37176 20.7431 6.54013V10.0061H18.9671C18.6645 9.96587 18.3566 9.99426 18.0664 10.0892C17.7762 10.1841 17.5111 10.343 17.2907 10.5543C17.0703 10.7656 16.9002 11.0238 16.7931 11.3097C16.6861 11.5957 16.6447 11.902 16.6721 12.2061V14.8481H20.5781L19.9541 18.9191H16.6731V28.7591C19.9861 28.234 23.0029 26.544 25.1809 23.9929C27.3589 21.4419 28.555 18.1974 28.5541 14.8431Z" fill="#4676ED"/>
<path d="M19.9553 18.9142L20.5793 14.8432H16.6733V12.2012C16.6459 11.8972 16.6872 11.5908 16.7943 11.3049C16.9013 11.0189 17.0714 10.7607 17.2918 10.5495C17.5122 10.3382 17.7774 10.1792 18.0676 10.0843C18.3578 9.98938 18.6656 9.96101 18.9683 10.0013H20.7443V6.53525C19.7017 6.36688 18.6482 6.27497 17.5923 6.26025C14.3753 6.26025 12.2733 8.21024 12.2733 11.7392V14.8392H8.69727V18.9102H12.2733V28.7502C13.7311 28.9783 15.2155 28.9783 16.6733 28.7502V18.9102L19.9553 18.9142Z" fill="white"/>
</svg>
