<svg width="54" height="54" viewBox="0 0 54 54" fill="none" xmlns="http://www.w3.org/2000/svg">
<mask id="mask0_20_1358" style="mask-type:luminance" maskUnits="userSpaceOnUse" x="0" y="0" width="54" height="54">
<path d="M53.9104 27.2811C53.9104 41.9885 42.0024 53.9067 27.2951 53.917C12.5877 53.917 0.669472 42.0091 0.65918 27.3017V27.2811C0.65918 12.5738 12.5671 0.655556 27.2745 0.645264C41.9818 0.645264 53.9001 12.5532 53.9104 27.2606V27.2811Z" fill="white"/>
</mask>
<g mask="url(#mask0_20_1358)">
<path d="M-12.5874 41.6087H67.2585V37.5125H-12.5874V41.6087Z" fill="white"/>
<path d="M-12.5874 37.5128H67.2585V33.4165H-12.5874V37.5128Z" fill="#CA4638"/>
<path d="M-12.5874 49.8008H67.2585V45.7046H-12.5874V49.8008Z" fill="white"/>
<path d="M-12.5874 53.8975H67.2585V49.8013H-12.5874V53.8975Z" fill="#CA4638"/>
<path d="M-12.5874 45.7049H67.2585V41.6086H-12.5874V45.7049Z" fill="#CA4638"/>
<path d="M-12.5874 33.2313H67.2585V29.135H-12.5874V33.2313Z" fill="white"/>
<path d="M-12.5874 21.1378H67.2585V17.0415H-12.5874V21.1378Z" fill="#CA4638"/>
<path d="M-12.5874 8.84891H67.2585V4.75269H-12.5874V8.84891Z" fill="white"/>
<path d="M-12.5874 12.9451H67.2585V8.84888H-12.5874V12.9451Z" fill="#CA4638"/>
<path d="M-12.5874 29.3299H67.2585V25.2336H-12.5874V29.3299Z" fill="#CA4638"/>
<path d="M-12.5874 4.75294H67.2585V0.666992H-12.5874V4.75294Z" fill="#CA4638"/>
<path d="M-12.5874 17.041H67.2585V12.9448H-12.5874V17.041Z" fill="white"/>
<path d="M-12.5874 25.2239H67.2585V21.1277H-12.5874V25.2239Z" fill="white"/>
</g>
<mask id="mask1_20_1358" style="mask-type:luminance" maskUnits="userSpaceOnUse" x="0" y="0" width="54" height="54">
<path d="M53.9206 27.1483C53.9206 41.8557 42.0127 53.7739 27.3053 53.7842C12.5979 53.7842 0.679726 41.8763 0.669434 27.1689V27.1483C0.669434 12.441 12.5774 0.522743 27.2847 0.512451C41.9921 0.512451 53.9103 12.4204 53.9206 27.1278V27.1483Z" fill="white"/>
</mask>
<g mask="url(#mask1_20_1358)">
<path d="M0.699707 29.3403H27.315V0.522461H0.699707V29.3403Z" fill="#356BA0"/>
</g>
<path d="M21.0681 4.38159L21.2637 4.99912H21.9121L21.3872 5.37992L21.593 5.99745L21.0681 5.61665L20.5329 5.99745L20.7388 5.37992L20.2139 4.99912H20.8623L21.0681 4.38159Z" fill="white"/>
<path d="M21.0681 9.81592L21.2637 10.4334H21.9121L21.3872 10.8142L21.593 11.4318L21.0681 11.051L20.5329 11.4318L20.7388 10.8142L20.2139 10.4334H20.8623L21.0681 9.81592Z" fill="white"/>
<path d="M21.0681 15.2507L21.2637 15.8683H21.9121L21.3872 16.2491L21.593 16.8666L21.0681 16.4858L20.5329 16.8666L20.7388 16.2491L20.2139 15.8683H20.8623L21.0681 15.2507Z" fill="white"/>
<path d="M21.0681 20.8076L21.2637 21.4251H21.9121L21.3872 21.8059L21.593 22.4235L21.0681 22.0324L20.5329 22.4235L20.7388 21.8059L20.2139 21.4251H20.8623L21.0681 20.8076Z" fill="white"/>
<path d="M21.0681 26.1184L21.2637 26.7359H21.9121L21.3872 27.1167L21.593 27.7343L21.0681 27.3535L20.5329 27.7343L20.7388 27.1167L20.2139 26.7359H20.8623L21.0681 26.1184Z" fill="white"/>
<path d="M16.1902 4.38184L16.3858 4.99937H17.0342L16.5093 5.38017L16.7048 5.9977L16.1799 5.6169L15.655 5.9977L15.8506 5.38017L15.3257 4.99937H15.9741L16.1696 4.38184" fill="white"/>
<path d="M16.1902 9.81592L16.3858 10.4334H17.0342L16.5093 10.8142L16.7048 11.4318L16.1799 11.051L15.655 11.4318L15.8506 10.8142L15.3257 10.4334H15.9741L16.1696 9.81592" fill="white"/>
<path d="M16.1902 15.2507L16.3858 15.8683H17.0342L16.5093 16.2491L16.7048 16.8666L16.1799 16.4858L15.655 16.8666L15.8506 16.2491L15.3257 15.8683H15.9741L16.1696 15.2507" fill="white"/>
<path d="M16.1902 20.8074L16.3858 21.4249H17.0342L16.5093 21.8057L16.7048 22.4232L16.1799 22.0321L15.655 22.4232L15.8506 21.8057L15.3257 21.4249H15.9741L16.1696 20.8074" fill="white"/>
<path d="M16.1902 26.1184L16.3858 26.7359H17.0342L16.5093 27.1167L16.7048 27.7343L16.1799 27.3535L15.655 27.7343L15.8506 27.1167L15.3257 26.7359H15.9741L16.1696 26.1184" fill="white"/>
<path d="M11.322 9.81592L11.5176 10.4334H12.166L11.6411 10.8142L11.8469 11.4318L11.322 11.051L10.7868 11.4318L10.9927 10.8142L10.4678 10.4334H11.1162L11.322 9.81592Z" fill="white"/>
<path d="M11.322 15.2507L11.5176 15.8683H12.166L11.6411 16.2491L11.8469 16.8666L11.322 16.4858L10.7868 16.8666L10.9927 16.2491L10.4678 15.8683H11.1162L11.322 15.2507Z" fill="white"/>
<path d="M11.322 20.8074L11.5176 21.4249H12.166L11.6411 21.8057L11.8469 22.4232L11.322 22.0321L10.7868 22.4232L10.9927 21.8057L10.4678 21.4249H11.1162L11.322 20.8074Z" fill="white"/>
<path d="M11.322 26.1184L11.5176 26.7359H12.166L11.6411 27.1167L11.8469 27.7343L11.322 27.3535L10.7868 27.7343L10.9927 27.1167L10.4678 26.7359H11.1162L11.322 26.1184Z" fill="white"/>
<path d="M6.44412 15.2507L6.63967 15.8683H7.28807L6.76318 16.2491L6.95873 16.8666L6.43383 16.4858L5.90894 16.8666L6.10448 16.2491L5.57959 15.8683H6.22799L6.43383 15.2507" fill="white"/>
<path d="M6.44364 20.8076L6.63918 21.4251H7.28758L6.76269 21.8059L6.95824 22.4235L6.43334 22.0324L5.90845 22.4235L6.104 21.8059L5.5791 21.4251H6.2275L6.43334 20.8076" fill="white"/>
<path d="M6.44364 26.1184L6.63918 26.7359H7.28758L6.76269 27.1167L6.95824 27.7343L6.43334 27.3535L5.90845 27.7343L6.104 27.1167L5.5791 26.7359H6.2275L6.43334 26.1184" fill="white"/>
<path d="M23.5491 7.09937L23.7446 7.71686H24.393L23.8681 8.0977L24.0637 8.7152L23.5388 8.33439L23.0139 8.7152L23.2197 8.0977L22.6948 7.71686H23.3432L23.5491 7.09937Z" fill="white"/>
<path d="M23.5491 12.7078L23.7446 13.3253H24.393L23.8681 13.7061L24.0637 14.3236L23.5388 13.9428L23.0139 14.3236L23.2197 13.7061L22.6948 13.3253H23.3432L23.5491 12.7078Z" fill="white"/>
<path d="M23.4973 18.2043L23.7032 18.8219H24.3515L23.8267 19.2027L24.0222 19.8202L23.4973 19.4394L22.9724 19.8202L23.168 19.2027L22.6431 18.8219H23.2915L23.487 18.2043" fill="white"/>
<path d="M23.446 23.6379L23.6518 24.2555H24.3002L23.7753 24.6363L23.9812 25.2538L23.4563 24.873L22.9314 25.2538L23.1269 24.6363L22.6021 24.2555H23.2504L23.446 23.6379Z" fill="white"/>
<path d="M18.6706 7.09937L18.8764 7.71686H19.5248L18.9999 8.0977L19.2058 8.7152L18.6809 8.33439L18.156 8.7152L18.3618 8.0977L17.8369 7.71686H18.4853L18.6809 7.09937" fill="white"/>
<path d="M18.6706 12.7078L18.8764 13.3253H19.5248L18.9999 13.7061L19.2058 14.3236L18.6809 13.9428L18.156 14.3236L18.3618 13.7061L17.8369 13.3253H18.4853L18.6809 12.7078" fill="white"/>
<path d="M18.6297 18.2043L18.8252 18.8219H19.4736L18.9487 19.2027L19.1443 19.8202L18.6194 19.4394L18.0945 19.8202L18.29 19.2027L17.7651 18.8219H18.4135L18.6194 18.2043" fill="white"/>
<path d="M18.5779 23.6377L18.7735 24.2552H19.4219L18.897 24.636L19.0925 25.2536L18.5676 24.8728L18.0427 25.2536L18.2383 24.636L17.7134 24.2552H18.3618L18.5676 23.6377" fill="white"/>
<path d="M13.8019 6.90381L14.0078 7.52131H14.6562L14.1313 7.90214L14.3371 8.51964L13.8122 8.13884L13.2873 8.51964L13.4932 7.90214L12.9683 7.52131H13.6167L13.8122 6.90381" fill="white"/>
<path d="M13.8019 12.5127L14.0078 13.1302H14.6562L14.1313 13.511L14.3371 14.1286L13.8122 13.7478L13.2873 14.1286L13.4932 13.511L12.9683 13.1302H13.6167L13.8122 12.5127" fill="white"/>
<path d="M13.7609 18.0085L13.9565 18.6261H14.6049L14.08 19.0069L14.2858 19.6244L13.7609 19.2436L13.236 19.6244L13.4419 19.0069L12.917 18.6261H13.5654L13.7712 18.0085" fill="white"/>
<path d="M13.7092 23.4436L13.9151 24.0611H14.5635L14.0386 24.4419L14.2341 25.0595L13.7092 24.6787L13.1843 25.0595L13.3799 24.4419L12.855 24.0611H13.5034L13.7092 23.4436Z" fill="white"/>
<path d="M8.93432 12.4614L9.12987 13.079H9.77827L9.25337 13.47L9.44892 14.0876L8.92403 13.7068L8.39913 14.0876L8.60497 13.47L8.08008 13.079H8.72848L8.93432 12.4614Z" fill="white"/>
<path d="M8.88305 17.9578L9.0786 18.5753H9.727L9.2021 18.9561L9.40794 19.5736L8.88305 19.1928L8.35815 19.5736L8.5537 18.9561L8.02881 18.5753H8.67721L8.88305 17.9578Z" fill="white"/>
<path d="M8.83178 23.3918L9.03762 24.0094H9.68602L9.16113 24.3902L9.35668 25.0077L8.83178 24.6269L8.30688 25.0077L8.50244 24.3902L7.97754 24.0094H8.62594L8.83178 23.3918Z" fill="white"/>
<path d="M4.01485 17.8652L4.22069 18.4828H4.86909L4.34419 18.8636L4.55004 19.4811L4.02514 19.1003L3.50024 19.4811L3.69579 18.8636L3.1709 18.4828H3.8193L4.01485 17.8652Z" fill="white"/>
<path d="M3.9626 23.2878L4.15815 23.9054H4.80655L4.28165 24.2862L4.4875 24.9037L3.9626 24.5229L3.4377 24.9037L3.64355 24.2862L3.11865 23.9054H3.76705L3.97289 23.2878" fill="white"/>
<path d="M25.9363 4.38159L26.1319 4.99912H26.7803L26.2554 5.37992L26.4509 5.99745L25.926 5.61665L25.4011 5.99745L25.5967 5.37992L25.0718 4.99912H25.7202L25.926 4.38159" fill="white"/>
<path d="M25.9363 9.81592L26.1319 10.4334H26.7803L26.2554 10.8142L26.4509 11.4318L25.926 11.051L25.4011 11.4318L25.5967 10.8142L25.0718 10.4334H25.7202L25.926 9.81592" fill="white"/>
<path d="M25.9363 15.2507L26.1319 15.8683H26.7803L26.2554 16.2491L26.4509 16.8666L25.926 16.4858L25.4011 16.8666L25.5967 16.2491L25.0718 15.8683H25.7202L25.926 15.2507" fill="white"/>
<path d="M25.9363 20.8074L26.1319 21.4249H26.7803L26.2554 21.8057L26.4509 22.4232L25.926 22.0321L25.4011 22.4232L25.5967 21.8057L25.0718 21.4249H25.7202L25.926 20.8074" fill="white"/>
<path d="M25.9363 26.1184L26.1319 26.7359H26.7803L26.2554 27.1167L26.4509 27.7343L25.926 27.3535L25.4011 27.7343L25.5967 27.1167L25.0718 26.7359H25.7202L25.926 26.1184" fill="white"/>
<path d="M23.5491 1.9126L23.7447 2.53013H24.3931L23.8682 2.91093L24.0637 3.52846L23.5388 3.14763L23.0139 3.52846L23.2095 2.91093L22.6846 2.53013H23.333L23.5388 1.9126" fill="white"/>
<path d="M1.96561 26.1184L2.16116 26.7359H2.80956L2.28466 27.1167L2.48021 27.7343L1.95532 27.3535L1.43042 27.7343L1.62597 27.1167L1.10107 26.7359H1.74948L1.95532 26.1184" fill="white"/>
<path d="M2.41922 20.8074L2.61477 21.4249H3.26317L2.73827 21.8057L2.93382 22.4232L2.40893 22.0321L1.88403 22.4232L2.07958 21.8057L1.55469 21.4249H2.20308L2.40893 20.8074" fill="white"/>
<path d="M18.6706 2.39575L18.8764 3.01328H19.5248L18.9999 3.39408L19.2058 4.01161L18.6809 3.63078L18.156 4.01161L18.3618 3.39408L17.8369 3.01328H18.4853L18.6809 2.39575" fill="white"/>
</svg>
