<svg width="29" height="29" viewBox="0 0 29 29" fill="none" xmlns="http://www.w3.org/2000/svg">
<path d="M14.2459 28.603C22.0988 28.603 28.4649 22.237 28.4649 14.384C28.4649 6.5311 22.0988 0.165039 14.2459 0.165039C6.39292 0.165039 0.0268555 6.5311 0.0268555 14.384C0.0268555 22.237 6.39292 28.603 14.2459 28.603Z" fill="#4467AD"/>
<path d="M14.5208 11.9611C14.7458 11.7091 14.9298 11.4531 15.1608 11.2361C15.4941 10.9102 15.8889 10.6539 16.3222 10.4822C16.7556 10.3105 17.2188 10.2269 17.6848 10.2361C18.2202 10.2275 18.7541 10.2924 19.2718 10.4291C19.8143 10.5792 20.3057 10.8742 20.6933 11.2823C21.0809 11.6905 21.35 12.1966 21.4718 12.7461C21.6913 13.6134 21.7899 14.5068 21.7648 15.4011C21.7648 17.2881 21.7598 19.1741 21.7648 21.0611C21.7648 21.2371 21.7158 21.2841 21.5418 21.2831C20.5698 21.2751 19.5978 21.2751 18.6258 21.2831C18.4548 21.2831 18.4178 21.2311 18.4178 21.0701C18.4231 19.2748 18.4231 17.4794 18.4178 15.6841C18.4282 15.2334 18.3756 14.7834 18.2618 14.3471C18.1827 13.9803 17.9689 13.6564 17.6627 13.4394C17.3565 13.2224 16.9801 13.1281 16.6078 13.1751C16.3634 13.1625 16.119 13.1997 15.8893 13.2844C15.6597 13.3691 15.4497 13.4996 15.272 13.6679C15.0944 13.8363 14.9528 14.0389 14.8558 14.2636C14.7588 14.4883 14.7084 14.7304 14.7078 14.9751C14.6733 15.2544 14.6562 15.5356 14.6568 15.8171C14.6568 17.5631 14.6568 19.3091 14.6568 21.0551C14.6568 21.2291 14.6138 21.2811 14.4358 21.2791C13.4565 21.2704 12.4774 21.2704 11.4988 21.2791C11.3418 21.2791 11.2988 21.2381 11.2988 21.0791C11.3028 17.6225 11.3028 14.1658 11.2988 10.7091C11.2988 10.5381 11.3548 10.4981 11.5168 10.5001C12.4468 10.5068 13.3765 10.5068 14.3058 10.5001C14.4768 10.5001 14.5208 10.5541 14.5178 10.7161C14.5148 11.1341 14.5208 11.5471 14.5208 11.9611Z" fill="#FEFEFE"/>
<path d="M9.19586 15.9099C9.19586 17.6199 9.19586 19.3299 9.19586 21.0399C9.19586 21.2299 9.14988 21.2869 8.95288 21.2849C7.98088 21.2749 7.0099 21.2769 6.0379 21.2849C5.8819 21.2849 5.83789 21.2469 5.83789 21.0849C5.84256 17.6222 5.84256 14.1596 5.83789 10.6969C5.83789 10.5539 5.8729 10.5029 6.0249 10.5039C7.0109 10.5099 7.99587 10.5119 8.98187 10.5039C9.17087 10.5039 9.1969 10.5749 9.1969 10.7379C9.1929 12.4619 9.19253 14.1859 9.19586 15.9099Z" fill="#FEFEFE"/>
<path d="M9.46303 7.07798C9.46501 7.46246 9.35277 7.83886 9.14052 8.15946C8.92827 8.48005 8.62556 8.7304 8.27083 8.87873C7.9161 9.02705 7.52531 9.06667 7.14803 8.99259C6.77074 8.9185 6.42399 8.73404 6.15169 8.46259C5.87939 8.19114 5.69386 7.84492 5.61861 7.46787C5.54335 7.09082 5.58173 6.69992 5.72896 6.34473C5.87619 5.98955 6.12564 5.68609 6.44557 5.47284C6.76551 5.2596 7.14153 5.14619 7.52602 5.14698C8.0379 5.14959 8.52818 5.35369 8.8907 5.71509C9.25322 6.07649 9.45883 6.5661 9.46303 7.07798Z" fill="#FEFEFE"/>
</svg>
