<svg width="13" height="13" viewBox="0 0 13 13" fill="none" xmlns="http://www.w3.org/2000/svg">
<path fill-rule="evenodd" clip-rule="evenodd" d="M6.85657 1.52567L8.27137 4.36877C8.30589 4.44015 8.35728 4.50205 8.42111 4.5491C8.48494 4.59614 8.55927 4.62692 8.63767 4.63877L11.803 5.09597C11.9309 5.11317 12.0468 5.18051 12.1252 5.28317C12.1964 5.37585 12.2305 5.49176 12.2209 5.60826C12.2112 5.72476 12.1585 5.83347 12.073 5.91317L9.77887 8.13167C9.72171 8.18551 9.6791 8.25295 9.65503 8.3277C9.63095 8.40245 9.62618 8.48208 9.64117 8.55917L10.1902 11.6894C10.2086 11.8142 10.1772 11.9412 10.1028 12.0431C10.0284 12.145 9.91688 12.2135 9.79237 12.2339C9.68487 12.2504 9.5749 12.2334 9.47737 12.1853L6.65767 10.7057C6.58855 10.6683 6.51123 10.6488 6.43267 10.6488C6.35411 10.6488 6.27679 10.6683 6.20767 10.7057L3.36457 12.1898C3.25023 12.2475 3.11796 12.2588 2.99549 12.2212C2.87301 12.1836 2.76984 12.1001 2.70757 11.9882C2.65831 11.8946 2.64093 11.7874 2.65807 11.6831L3.20707 8.55287C3.22059 8.47578 3.21511 8.39657 3.19112 8.32208C3.16713 8.24759 3.12534 8.18007 3.06937 8.12537L0.762672 5.90777C0.718098 5.86322 0.682738 5.81032 0.658613 5.7521C0.634487 5.69389 0.62207 5.63148 0.62207 5.56847C0.62207 5.50545 0.634487 5.44304 0.658613 5.38483C0.682738 5.32661 0.718098 5.27371 0.762672 5.22917C0.84012 5.15873 0.935903 5.11161 1.03897 5.09327L4.20427 4.63607C4.28245 4.62357 4.35649 4.59253 4.42022 4.54556C4.48395 4.49859 4.5355 4.43704 4.57057 4.36607L5.98357 1.52567C6.01172 1.46848 6.05097 1.41747 6.09902 1.3756C6.14707 1.33372 6.20298 1.30183 6.26347 1.28177C6.3243 1.26152 6.38852 1.25348 6.45246 1.25811C6.5164 1.26274 6.5788 1.27996 6.63607 1.30877C6.73063 1.35597 6.80782 1.43189 6.85657 1.52567Z" stroke="#1A3754" stroke-opacity="0.4" stroke-width="0.9" stroke-linecap="round" stroke-linejoin="round"/>
</svg>
