<svg width="13" height="13" viewBox="0 0 13 13" fill="none" xmlns="http://www.w3.org/2000/svg">
<path fill-rule="evenodd" clip-rule="evenodd" d="M6.9013 0.616143L8.4664 3.76614C8.50511 3.84453 8.56227 3.91235 8.63297 3.96376C8.70368 4.01518 8.7858 4.04867 8.8723 4.06134L12.376 4.56714C12.4467 4.57618 12.5149 4.59913 12.5767 4.63465C12.6385 4.67018 12.6926 4.71759 12.736 4.77414C12.8149 4.87674 12.8527 5.00505 12.842 5.13403C12.8314 5.263 12.773 5.38338 12.6784 5.47164L10.1386 7.92774C10.0752 7.98729 10.0279 8.06195 10.0011 8.14473C9.97436 8.22752 9.96902 8.31573 9.9856 8.40114L10.594 11.8661C10.6145 12.0044 10.5797 12.1452 10.4972 12.2581C10.4146 12.3709 10.291 12.4468 10.153 12.4691C10.0341 12.4873 9.91253 12.4684 9.8047 12.4151L6.6817 10.778C6.6048 10.7361 6.51863 10.7142 6.43105 10.7142C6.34348 10.7142 6.2573 10.7361 6.1804 10.778L3.0358 12.4223C2.90913 12.4865 2.76253 12.4991 2.62676 12.4575C2.491 12.4159 2.37664 12.3233 2.3077 12.1991C2.25209 12.096 2.23156 11.9775 2.2492 11.8616L2.8576 8.39664C2.87254 8.31124 2.86641 8.22348 2.83975 8.14099C2.81309 8.05849 2.7667 7.98375 2.7046 7.92324L0.155803 5.46804C0.106412 5.41873 0.0672291 5.36015 0.0404949 5.29568C0.0137608 5.2312 0 5.16209 0 5.09229C0 5.02249 0.0137608 4.95338 0.0404949 4.88891C0.0672291 4.82443 0.106412 4.76586 0.155803 4.71654C0.241343 4.63874 0.347091 4.58665 0.460903 4.56624L3.9655 4.06044C4.05184 4.04695 4.13371 4.01305 4.20431 3.96155C4.27491 3.91005 4.33219 3.84244 4.3714 3.76434L5.9392 0.616143C5.97033 0.552861 6.01373 0.496401 6.06689 0.450049C6.12004 0.403696 6.18187 0.368376 6.2488 0.346143C6.38471 0.300994 6.53298 0.311678 6.661 0.375843C6.76432 0.428763 6.84838 0.512827 6.9013 0.616143Z" fill="#FFBF3E"/>
</svg>
